# xmcd
#
# Track frame offsets: 
#        150
#        20289
#        43733
#        61788
#        78716
#        99060
#        123353
#        140983
#        164754
#        186390
#        205373
#        220186
#        238707
#        257176
#        271822
#        286422
#        300984
#
# Disc length: 4270 seconds
#
# Revision: 3
# Processed by: cddbd v1.5.2PL0 Copyright (c) Steve Scherf et al.
# Submitted via: ExactAudioCopyFreeDBPlugin 1.0
#
DISCID=fb10ac11
DTITLE=R.E.M. - The Greatest Hits Collection
DYEAR=1900
DGENRE=Blues
TTITLE0=Loosing My Religion
TTITLE1=Man On The Moon
TTITLE2=What's The Frequency, Kenneth?
TTITLE3=Shiny Happy People
TTITLE4=Drive
TTITLE5=E-Bow The Letter
TTITLE6=Radio Free Europe
TTITLE7=Everbody Hurts
TTITLE8=Bang And Blame
TTITLE9=Radio Song
TTITLE10=The One I Love
TTITLE11=The Sidewinder Sleeps Tonight
TTITLE12=Electrolite
TTITLE13=So Central Rain
TTITLE14=Talking Abouth The Passion
TTITLE15=Near Wild Heaven
TTITLE16=Nightswimming
EXTD=
EXTT0=
EXTT1=
EXTT2=
EXTT3=
EXTT4=
EXTT5=
EXTT6=
EXTT7=
EXTT8=
EXTT9=
EXTT10=
EXTT11=
EXTT12=
EXTT13=
EXTT14=
EXTT15=
EXTT16=
PLAYORDER=
